<?xml version="1.0" encoding="utf-8"?>
<!-- Generator: Adobe Illustrator 23.0.3, SVG Export Plug-In . SVG Version: 6.00 Build 0)  -->
<svg version="1.1" id="Astro_Cat" xmlns="http://www.w3.org/2000/svg" xmlns:xlink="http://www.w3.org/1999/xlink" x="0px" y="0px"
	 viewBox="0 0 1457.12 957.91" style="enable-background:new 0 0 1457.12 957.91;" xml:space="preserve">
<style type="text/css">
	.st0{opacity:0.54;}
	.st1{fill:none;}
	.st2{clip-path:url(#XMLID_15_);fill:#B66E00;}
	.st3{opacity:0.2;clip-path:url(#XMLID_15_);fill:#1D1D1B;}
	.st4{fill:#DB7F07;stroke:#B66E00;stroke-width:4;stroke-linecap:round;stroke-linejoin:round;stroke-miterlimit:10;}
	.st5{opacity:0.38;clip-path:url(#XMLID_16_);}
	.st6{fill:#634E42;}
	.st7{opacity:0.4;clip-path:url(#XMLID_16_);fill:#FDE9CC;}
	.st8{clip-path:url(#XMLID_16_);fill:#B66E00;}
	.st9{opacity:0.2;clip-path:url(#XMLID_16_);fill:#1D1D1B;}
	.st10{opacity:0.2;clip-path:url(#XMLID_17_);fill:#1D1D1B;}
	.st11{opacity:0.2;clip-path:url(#SVGID_2_);fill:#1D1D1B;}
	.st12{fill:none;stroke:#706F6F;stroke-width:4;stroke-linecap:round;stroke-linejoin:round;stroke-miterlimit:10;}
	.st13{fill:#999A9A;stroke:#706F6F;stroke-width:4;stroke-miterlimit:10;}
	.st14{opacity:0.6;clip-path:url(#XMLID_18_);fill:none;stroke:#FFFFFF;stroke-width:6;stroke-miterlimit:10;}
	.st15{opacity:0.6;clip-path:url(#XMLID_18_);fill:none;stroke:#FFFFFF;stroke-width:10;stroke-miterlimit:10;}
	.st16{fill:#00A19A;stroke:#00403C;stroke-width:4;stroke-linecap:round;stroke-linejoin:round;stroke-miterlimit:10;}
	
		.st17{clip-path:url(#XMLID_19_);fill:#B2B2B2;stroke:#525353;stroke-width:5;stroke-linecap:round;stroke-linejoin:round;stroke-miterlimit:10;}
	.st18{clip-path:url(#XMLID_19_);}
	.st19{clip-path:url(#XMLID_20_);}
	.st20{fill:#F39200;stroke:#B66E00;stroke-width:4;stroke-linecap:round;stroke-linejoin:round;stroke-miterlimit:10;}
	.st21{fill:#FDE9CC;stroke:#B66E00;stroke-width:4;stroke-linecap:round;stroke-linejoin:round;stroke-miterlimit:10;}
	
		.st22{clip-path:url(#XMLID_21_);fill:none;stroke:#B66E00;stroke-width:4;stroke-linecap:round;stroke-linejoin:round;stroke-miterlimit:10;}
	.st23{opacity:0.2;clip-path:url(#XMLID_21_);fill:#1D1D1B;}
	.st24{fill:#FFFFFF;}
	.st25{fill:#1D1D1B;}
	.st26{fill:#F4AACC;stroke:#B25768;stroke-width:4;stroke-linecap:round;stroke-linejoin:round;stroke-miterlimit:10;}
	.st27{clip-path:url(#XMLID_22_);fill:#FFFFFF;}
	.st28{opacity:0.6;fill:#FFFFFF;}
	.st29{fill:none;stroke:#1D1D1B;stroke-width:7;stroke-linecap:round;stroke-linejoin:round;stroke-miterlimit:10;}
	.st30{opacity:0.4;clip-path:url(#XMLID_23_);fill:#1D1D1B;}
	
		.st31{opacity:0.2;clip-path:url(#XMLID_24_);fill:none;stroke:#FFFFFF;stroke-width:80;stroke-linecap:round;stroke-linejoin:round;stroke-miterlimit:10;}
	
		.st32{opacity:0.2;clip-path:url(#XMLID_24_);fill:none;stroke:#FFFFFF;stroke-width:110;stroke-linecap:round;stroke-linejoin:round;stroke-miterlimit:10;}
	.st33{opacity:0.2;clip-path:url(#XMLID_19_);fill:#1D1D1B;}
	.st34{fill:#575756;stroke:#1D1D1B;stroke-width:4;stroke-miterlimit:10;}
</style>
<g>
	<g>
		<g class="st0">
			<path class="st1" d="M1157.64,451.46"/>
		</g>
		<g class="st0">
			<path class="st1" d="M1079.64,412.87"/>
		</g>
	</g>
	<g>
		<defs>
			<path id="XMLID_4_" d="M1130.49,530.75c-19.33,0-35-15.67-35-35c0-15.88,10.58-29.3,25.08-33.57
				c6.66-2.74,30.85-14.89,49.69-34.2c30.11-30.88,25.93-57.44,20.17-74.74c-20.94-62.83-20.27-112.79,2.06-152.73
				c11.26-20.15,28.03-37.2,49.85-50.69c20.31-12.56,44.65-22.04,74.4-29c32.17-7.52,53.29-23.37,62.77-47.13
				c6.82-17.08,5.56-32.48,5.55-32.62c-2.25-19.2,11.5-36.58,30.69-38.83c19.2-2.24,36.58,11.5,38.83,30.69
				c0.38,3.28,3.37,33.06-10.06,66.71c-12.69,31.81-42.4,73.12-111.86,89.35c-40.86,9.55-67.46,24.92-79.07,45.68
				c-12.01,21.49-10.92,53.93,3.25,96.44c14.7,44.11,8,87.51-19.37,125.49c-18.13,25.16-42.1,43.12-59.01,53.76
				c-9.9,6.23-18.39,10.61-23.77,13.18C1143.3,529,1137.42,530.75,1130.49,530.75z M1130.43,460.75c-0.01,0-0.01,0-0.02,0
				C1130.41,460.75,1130.42,460.75,1130.43,460.75z M1130.49,460.75c-0.02,0-0.03,0-0.05,0
				C1130.46,460.75,1130.48,460.75,1130.49,460.75z"/>
		</defs>
		<use xlink:href="#XMLID_4_"  style="overflow:visible;fill:#F39200;"/>
		<clipPath id="XMLID_15_">
			<use xlink:href="#XMLID_4_"  style="overflow:visible;"/>
		</clipPath>
		<path class="st2" d="M1151.18,386.15c0.14-0.01,0.35-0.04,0.44-0.04l0.26,0c0.17,0,0.35,0,0.48,0.01l0.84,0.06
			c0.52,0.05,1.04,0.1,1.52,0.16c0.98,0.12,1.92,0.26,2.83,0.42c1.84,0.31,3.61,0.68,5.35,1.08c3.48,0.81,6.85,1.78,10.14,2.88
			c6.58,2.23,12.86,4.98,18.69,8.37c5.83,3.36,11.2,7.32,15.79,11.83c4.61,4.45,8.36,9.52,11.16,14.7
			c-5.57-2.05-11.11-3.18-16.53-3.41c-2.69-0.15-5.36-0.06-7.96,0.17c-2.6,0.22-5.16,0.64-7.65,1.17
			c-4.98,1.05-9.76,2.69-14.24,4.67c-2.24,1-4.4,2.09-6.44,3.27c-1.02,0.59-2,1.2-2.91,1.83c-0.46,0.31-0.9,0.63-1.28,0.95
			c-0.21,0.16-0.37,0.32-0.53,0.48c-0.08,0.08-0.12,0.15-0.19,0.23c-0.04,0.04-0.03,0.07-0.03,0.1l0,0.05
			c0,0.02,0.13,0.01,0.18,0.01L1151.18,386.15z"/>
		<path class="st2" d="M1145.87,325.72c0.14-0.1,0.35-0.27,0.42-0.31l0.25-0.15c0.17-0.1,0.34-0.21,0.46-0.27
			c0.27-0.14,0.57-0.31,0.81-0.43c0.51-0.25,1.01-0.49,1.48-0.69c0.96-0.43,1.88-0.79,2.8-1.14c1.83-0.68,3.61-1.27,5.4-1.78
			c3.56-1.03,7.09-1.8,10.62-2.34c7.05-1.09,14.09-1.24,20.83-0.51c3.38,0.39,6.67,1.02,9.84,1.83c3.18,0.85,6.22,1.92,9.1,3.17
			c5.77,2.54,10.85,5.86,15.19,9.61c-5.76,0.17-11.23,1.15-16.14,2.86c-2.46,0.88-4.78,1.9-6.96,3.08c-2.17,1.2-4.2,2.52-6.08,3.95
			c-3.75,2.91-6.93,6.22-9.53,9.79c-1.3,1.78-2.46,3.63-3.42,5.47c-0.48,0.92-0.91,1.85-1.25,2.74c-0.17,0.44-0.32,0.88-0.41,1.29
			c-0.06,0.21-0.08,0.39-0.08,0.57c-0.02,0.1,0.03,0.15,0.04,0.22c0,0.04,0.04,0.05,0.08,0.06l0.06,0.01
			c0.01,0.01,0.16-0.1,0.23-0.15L1145.87,325.72z"/>
		<path class="st2" d="M1149.1,236.37c-1.39,0.01-2.82,0.14-4.21,0.4c-0.7,0.13-1.38,0.29-2.06,0.48l-0.5,0.15
			c-0.19,0.06-0.07,0.02-0.12,0.04l-0.05,0.03l-0.41,0.23c-0.05,0.03-0.18,0.1-0.16,0.11l0.09,0.02l0.19,0.04
			c0.09,0.04,0.32,0.02,0.53,0.02l0.63-0.02l2.85-0.17c1.95-0.11,3.92-0.16,5.87-0.18c3.92-0.01,7.81,0.19,11.65,0.61
			c7.69,0.85,15.23,2.57,22.24,5.37c7,2.75,13.41,6.59,18.69,11.2c5.32,4.58,9.45,9.97,12.56,15.49c-5.9-2.42-11.87-3.84-17.59-4.04
			c-5.72-0.24-11.12,0.61-16.09,2.23c-4.97,1.59-9.54,3.96-13.71,6.75c-2.09,1.4-4.07,2.92-5.95,4.52
			c-0.94,0.81-1.85,1.63-2.75,2.48l-1.41,1.32l-0.43,0.36c-0.14,0.12-0.27,0.24-0.53,0.4l-0.34,0.23l-0.17,0.11
			c-0.07,0.04-0.29,0.13-0.42,0.2l-0.95,0.41l-0.12,0.05c-0.06,0.02,0.05-0.01-0.15,0.05l-0.54,0.16c-0.72,0.2-1.45,0.37-2.19,0.51
			c-1.48,0.28-3,0.43-4.48,0.46V236.37z"/>
		<path class="st2" d="M1202.85,140.97c-1.42-1.05-3.01-1.96-4.65-2.64l-0.62-0.25l-0.29-0.11l-0.03-0.01l-0.11-0.02l-0.23-0.04
			l-0.46-0.06l-0.12-0.01c-0.03,0,0,0.02,0,0.03l0.04,0.06l0.14,0.25c0.07,0.09,0.25,0.21,0.38,0.32l0.41,0.33l0.5,0.35l1.03,0.71
			l4.43,3.01c2.99,2.07,5.97,4.25,8.86,6.56c5.78,4.6,11.3,9.77,16.08,15.62c2.39,2.94,4.57,6.09,6.43,9.41
			c1.86,3.31,3.39,6.81,4.36,10.42c0.99,3.6,1.45,7.24,1.36,10.73c-0.15,3.51-0.85,6.8-1.88,9.82c-1.05-3.04-2.45-5.8-4.15-8.15
			c-1.75-2.34-3.79-4.26-5.97-5.83c-2.16-1.57-4.53-2.77-6.97-3.72c-2.44-0.95-4.94-1.67-7.52-2.2c-5.18-1.04-10.5-1.43-15.94-1.4
			c-2.71,0.02-5.44,0.14-8.2,0.34l-4.25,0.32l-1.15,0.07l-0.59,0.03l-0.68,0c-0.24,0-0.42,0.01-0.71-0.01l-0.94-0.09l-0.24-0.02
			c-0.05-0.01-0.06,0-0.13-0.02l-0.25-0.06l-1-0.25l-0.5-0.13l-0.25-0.07l-0.06-0.02l-0.32-0.12l-0.68-0.28
			c-1.81-0.77-3.57-1.76-5.16-2.89L1202.85,140.97z"/>
		<path class="st2" d="M1286.99,90c-0.41-0.38-0.84-0.73-1.28-1.07c-0.22-0.17-0.45-0.33-0.67-0.49l-0.33-0.22l-0.05-0.01
			c-0.13-0.02-0.26-0.03-0.39-0.04c-0.11-0.03-0.03,0.06-0.02,0.11l0.07,0.16c0.06,0.12,0.07,0.21,0.17,0.35l0.66,0.89l0.81,0.98
			l3.6,4.16c2.48,2.85,4.96,5.8,7.36,8.83c4.79,6.08,9.31,12.47,13.12,19.37c1.9,3.45,3.64,6.99,5.1,10.67
			c1.45,3.69,2.62,7.48,3.37,11.33c1.59,7.67,1.02,15.69-1.66,22.11c-0.76-3.43-2.03-6.54-3.68-9.29c-1.64-2.76-3.63-5.16-5.86-7.27
			c-4.44-4.23-9.64-7.42-15.15-10.07c-5.49-2.66-11.33-4.73-17.3-6.51c-2.99-0.89-6.02-1.69-9.14-2.47l-4.82-1.23l-1.3-0.36
			l-1.44-0.46c-0.25-0.08-0.58-0.23-0.87-0.34l-0.45-0.18c-0.16-0.07-0.26-0.09-0.53-0.24l-1.41-0.77l-0.18-0.1l-0.45-0.32
			l-0.91-0.69c-0.6-0.47-1.19-0.96-1.76-1.47L1286.99,90z"/>
		<path class="st2" d="M1325.63,68.39l0.54-0.07l0.3-0.01c0.19-0.01,0.42-0.02,0.58-0.02l0.99,0.01c0.6,0.03,1.22,0.04,1.78,0.09
			c1.15,0.08,2.25,0.19,3.33,0.32c2.16,0.26,4.24,0.62,6.3,1.02c4.11,0.84,8.09,1.94,11.98,3.32c7.75,2.77,15.14,6.63,21.39,11.76
			c3.12,2.56,5.94,5.38,8.37,8.41c2.4,3.06,4.42,6.27,6.01,9.56c3.15,6.63,4.6,13.42,4.99,19.89c-4.25-4.94-9.15-8.94-14.25-11.49
			c-2.57-1.26-5.18-2.16-7.74-2.77c-2.59-0.57-5.15-0.81-7.64-0.8c-4.99,0.02-9.81,1.12-14.33,2.81c-2.26,0.85-4.45,1.87-6.51,3.01
			c-1.02,0.58-2.02,1.18-2.92,1.82c-0.45,0.32-0.88,0.64-1.25,0.96c-0.2,0.16-0.34,0.32-0.5,0.48l-0.15,0.23
			c-0.03,0.04,0.01,0.07,0.01,0.1l0.02,0.05c0.04,0.01,0.17-0.01,0.25-0.01L1325.63,68.39z"/>
		<path class="st2" d="M1344.62,65.85c0,0,102.61-8.81,128.59,20.7c25.98,29.5,59.01-108.77-12.77-116.26
			S1344.62,65.85,1344.62,65.85z"/>
		<path class="st3" d="M1427.74-17.49c2.97,0.99,31.71,144.66-75.3,172.4c-107.01,27.74-149.61,68.37-123.85,144.66
			c25.76,76.29,20.81,158.53-78.28,186.27s-46.57,126.83,43.6,86.2c90.16-40.62,364.62-388.4,342.83-511.27
			C1514.93-62.08,1427.74-17.49,1427.74-17.49z"/>
		
			<use xlink:href="#XMLID_4_"  style="overflow:visible;fill:none;stroke:#B66E00;stroke-width:4;stroke-linecap:round;stroke-linejoin:round;stroke-miterlimit:10;"/>
	</g>
	<path class="st4" d="M915.64,724.21c0,0,48.66,79.98,86.66,98.65c0,0,1.33,40,20,35.33c0,0,11.33,8.67,18-7.33c0,0,12-8.67,0-23.33
		c0,0,10.67-17.33,2.67-22.67S985.03,653.1,952.02,655.1C919.02,657.1,899.65,690.23,915.64,724.21z"/>
	<path class="st4" d="M397.28,736.85c-0.05-0.08,45.23,99.83,74,124.67c0,0,7.33,26.67,23.33,28.67c0,0,10.67,6,17.33-4v0
		c6.57,4.21,14.98-1.48,13.52-9.15c-3.31-17.44-17.5-54.76-60.86-134.18c0,0-3.09-47.76-43.59-47.76S397.28,736.85,397.28,736.85z"
		/>
	<g>
		<defs>
			<path id="XMLID_7_" d="M1209.72,677.61c25.86-82.82-16.7-171.17-24.54-186.35c-0.69-1.34-1.42-2.67-2.24-3.94
				c-25.17-38.97-100.97-58.34-100.97-58.34c-272-115-703-18.5-703-18.5s-123,42.5-84,200c30.51,123.23,122.3,171.93,163.35,176.08
				s126.03,0,126.03,0c217.99,0,375.61-72.58,375.61-72.58S1195.42,723.41,1209.72,677.61z"/>
		</defs>
		<use xlink:href="#XMLID_7_"  style="overflow:visible;fill:#F39200;"/>
		<clipPath id="XMLID_16_">
			<use xlink:href="#XMLID_7_"  style="overflow:visible;"/>
		</clipPath>
		<g class="st5">
			<path class="st6" d="M1138.3,320.78c3.5-1.57,7.18-2.49,10.88-3.2c3.71-0.69,7.47-1.06,11.25-1.16c7.55-0.15,15.21,0.76,22.62,3
				c0.93,0.26,1.84,0.61,2.75,0.92c0.92,0.31,1.83,0.64,2.73,1.02c1.8,0.74,3.57,1.57,5.31,2.46c3.45,1.86,6.74,4.05,9.71,6.64
				c2.95,2.61,5.55,5.61,7.67,8.87c0.49,0.85,0.99,1.68,1.46,2.52c0.48,0.83,0.84,1.75,1.23,2.63c0.82,1.72,1.28,3.64,1.74,5.46
				c-2.9-2.52-5.56-4.89-8.41-6.95c-2.86-2.03-5.72-3.86-8.68-5.47c-3-1.56-6.02-2.99-9.13-4.25c-0.8-0.28-1.57-0.6-2.35-0.91
				c-0.78-0.32-1.59-0.56-2.39-0.84c-0.79-0.3-1.59-0.57-2.4-0.82c-0.81-0.25-1.6-0.54-2.43-0.76c-6.5-1.98-13.24-3.52-20.15-4.93
				C1152.77,323.58,1145.72,322.36,1138.3,320.78z"/>
		</g>
		<g class="st5">
			<path class="st6" d="M1130.78,361.75c3.5-1.57,7.18-2.49,10.88-3.2c3.71-0.69,7.47-1.06,11.25-1.16c7.55-0.15,15.21,0.76,22.62,3
				c0.93,0.26,1.84,0.61,2.75,0.92c0.92,0.31,1.83,0.64,2.73,1.02c1.8,0.74,3.57,1.57,5.31,2.46c3.45,1.86,6.74,4.05,9.71,6.64
				c2.95,2.61,5.55,5.61,7.67,8.87c0.49,0.85,0.99,1.68,1.46,2.52c0.48,0.83,0.84,1.75,1.23,2.63c0.82,1.72,1.28,3.64,1.74,5.46
				c-2.9-2.52-5.56-4.89-8.41-6.95c-2.86-2.03-5.72-3.86-8.68-5.47c-3-1.56-6.02-2.99-9.13-4.25c-0.8-0.28-1.57-0.6-2.35-0.91
				c-0.78-0.32-1.59-0.56-2.39-0.84c-0.79-0.3-1.59-0.57-2.4-0.82c-0.81-0.25-1.6-0.54-2.43-0.76c-6.5-1.98-13.24-3.52-20.15-4.93
				C1145.25,364.56,1138.2,363.34,1130.78,361.75z"/>
		</g>
		<g class="st5">
			<path class="st6" d="M1124.89,396.5c3.81-0.4,7.59-0.14,11.33,0.33c3.74,0.49,7.43,1.31,11.05,2.39
				c7.23,2.2,14.23,5.44,20.57,9.87c0.8,0.53,1.56,1.15,2.33,1.73c0.77,0.58,1.54,1.17,2.28,1.82c1.48,1.26,2.91,2.6,4.28,3.98
				c2.7,2.84,5.15,5.95,7.17,9.32c1.99,3.4,3.54,7.06,4.54,10.81c0.2,0.96,0.42,1.9,0.6,2.85c0.2,0.94,0.26,1.92,0.35,2.88
				c0.25,1.89,0.09,3.85-0.04,5.73c-1.97-3.3-3.77-6.38-5.83-9.21c-2.09-2.82-4.24-5.45-6.56-7.89c-2.36-2.42-4.8-4.71-7.37-6.87
				c-0.67-0.51-1.31-1.06-1.95-1.59c-0.64-0.54-1.34-1.02-2.01-1.54c-0.65-0.53-1.33-1.04-2.02-1.52c-0.69-0.49-1.36-1.01-2.07-1.47
				c-5.57-3.9-11.49-7.45-17.63-10.94C1137.77,403.65,1131.45,400.31,1124.89,396.5z"/>
		</g>
		<g class="st5">
			<path class="st6" d="M1151.34,278.71c3.5-1.57,7.18-2.49,10.88-3.2c3.71-0.69,7.47-1.06,11.25-1.16c7.55-0.15,15.21,0.76,22.62,3
				c0.93,0.26,1.84,0.61,2.75,0.92c0.92,0.31,1.83,0.64,2.73,1.02c1.8,0.74,3.57,1.57,5.31,2.46c3.45,1.86,6.74,4.05,9.71,6.64
				c2.95,2.61,5.55,5.61,7.67,8.87c0.49,0.85,0.99,1.68,1.46,2.52c0.48,0.83,0.84,1.75,1.23,2.63c0.82,1.72,1.28,3.64,1.74,5.46
				c-2.9-2.52-5.56-4.89-8.41-6.95c-2.86-2.03-5.72-3.86-8.68-5.47c-3-1.56-6.02-2.99-9.14-4.25c-0.8-0.28-1.57-0.6-2.35-0.91
				c-0.78-0.32-1.59-0.56-2.39-0.84c-0.79-0.3-1.59-0.57-2.4-0.82c-0.81-0.25-1.6-0.54-2.43-0.76c-6.5-1.98-13.24-3.52-20.15-4.93
				C1165.81,281.52,1158.76,280.3,1151.34,278.71z"/>
		</g>
		<path class="st7" d="M370.53,603.09c4.18-0.15-7.93,142.96,141.36,154.71s431.41-27.88,466.05-96.58
			c88.81,10.57-59.15,177.69-59.15,177.69s-519.72,45.58-598.06-32.37S143.3,611.02,370.53,603.09z"/>
		<path class="st8" d="M642.4,310.15l0.39,0.37l0.2,0.19l0.11,0.12l0.43,0.46l0.42,0.46l0.35,0.4c0.46,0.53,0.95,1.08,1.35,1.58
			c0.86,1.03,1.64,2.02,2.41,3.01c1.53,1.98,2.95,3.93,4.32,5.88c2.72,3.91,5.25,7.82,7.62,11.77c4.74,7.9,8.86,15.97,12.49,24.16
			c3.62,8.2,6.73,16.53,9.32,24.94c2.59,8.41,4.59,16.93,6.13,25.44c3.08,17.02,3.85,34.11,2.76,50.66
			c-1.23,16.57-4.35,32.6-9.03,47.8c-1.1-15.9-3.94-31.36-8.37-45.94c-2.35-7.27-4.85-14.36-8-21.13
			c-3.07-6.79-6.45-13.33-10.29-19.53c-3.81-6.21-7.89-12.14-12.32-17.72c-4.44-5.58-9.15-10.84-14.11-15.74
			c-4.95-4.89-10.13-9.46-15.47-13.54c-2.66-2.04-5.37-3.96-8.05-5.71c-1.34-0.87-2.68-1.7-3.97-2.43
			c-0.65-0.37-1.28-0.72-1.87-1.01c-0.32-0.17-0.57-0.27-0.84-0.39l-0.2-0.09l-0.13-0.02l-0.13-0.02c-0.01,0-0.02-0.01-0.03,0
			l0.05,0.07l0.11,0.14c-14.95-12.25-17.14-34.3-4.89-49.26S627.45,297.9,642.4,310.15z"/>
		<path class="st8" d="M785.56,331.12l0.24,0.58l0.14,0.41l0.27,0.8l0.47,1.48l0.83,2.83c0.53,1.86,1.02,3.69,1.48,5.51
			c0.94,3.64,1.76,7.23,2.55,10.82c1.54,7.18,2.84,14.33,3.91,21.5c1.07,7.16,1.9,14.32,2.51,21.48c0.58,7.17,0.92,14.34,1,21.48
			c0.14,14.28-0.82,28.52-3.24,42.34c-1.17,6.91-2.85,13.7-4.78,20.3c-1.99,6.6-4.47,12.98-7.23,19.07
			c-0.08-6.73-0.54-13.31-1.49-19.78c-1.01-6.47-2.26-12.78-3.99-18.97c-3.37-12.37-8.01-24.18-13.46-35.48
			c-2.74-5.65-5.67-11.18-8.77-16.58c-3.13-5.4-6.41-10.68-9.85-15.82c-3.43-5.14-7.02-10.15-10.71-14.98
			c-1.85-2.4-3.73-4.78-5.63-7.05c-0.95-1.14-1.9-2.26-2.84-3.32c-0.47-0.55-0.94-1.04-1.4-1.55l-0.67-0.69
			c-0.12-0.13-0.21-0.19-0.31-0.29l-0.15-0.13c-0.04-0.03-0.04,0.03-0.06,0.04c-9.39-16.9-3.3-38.21,13.6-47.59
			C754.87,308.14,776.18,314.23,785.56,331.12z"/>
		<path class="st8" d="M902.89,337.05c0.44,0.84,0.86,1.7,1.26,2.56l0.28,0.61l0.11,0.3l0.21,0.6l0.41,1.2
			c0.14,0.41,0.19,0.65,0.29,0.98l0.5,1.84l0.4,1.67c0.51,2.2,0.91,4.26,1.27,6.3c0.71,4.07,1.29,8.03,1.74,11.95
			c0.92,7.85,1.43,15.6,1.6,23.31c0.35,15.41-0.73,30.7-3.24,45.59c-2.57,14.89-6.64,29.38-12.5,42.85
			c-2.84,6.75-6.3,13.19-9.99,19.31l-2.86,4.52c-0.98,1.48-2.04,2.92-3.06,4.36l-1.53,2.15c-0.53,0.7-1.09,1.39-1.63,2.08
			l-3.26,4.09l1.3-5.05c0.21-0.84,0.44-1.66,0.62-2.5l0.51-2.54c0.32-1.69,0.69-3.35,0.96-5.03l0.72-5.04
			c0.8-6.72,1.27-13.36,1.1-19.97c-0.17-13.18-2.18-26.03-5.37-38.36c-3.26-12.33-7.68-24.19-13.09-35.4
			c-2.69-5.6-5.63-11.04-8.76-16.19c-1.55-2.58-3.18-5.07-4.81-7.39c-0.81-1.16-1.64-2.28-2.42-3.22l-0.58-0.69
			c-0.18-0.2-0.35-0.33-0.52-0.5c-0.08-0.06-0.19-0.21-0.23-0.19l-0.13,0.04l-0.06,0.02l-0.03,0.01c0.01,0.05,0.08,0.22,0.13,0.33
			c0.2,0.49,0.42,0.97,0.66,1.44c-9.95-16.58-4.57-38.07,12-48.02S892.94,320.47,902.89,337.05z"/>
		<path class="st8" d="M1033.71,378.84c-0.01-0.81-0.06-1.62-0.14-2.43c-0.04-0.4-0.09-0.81-0.15-1.21l-0.09-0.6
			c-0.02-0.11-0.01-0.02-0.02-0.04l-0.12,0.13l-0.06,0.07c-0.02,0.03-0.02,0.16-0.03,0.24l-0.05,0.54l-0.05,0.54l-0.04,0.62
			l-0.07,1.24l-0.29,5.19c-0.22,3.49-0.47,6.98-0.79,10.46c-0.62,6.95-1.48,13.85-2.54,20.69c-2.12,13.68-5.16,27.16-9.19,40.24
			c-2.05,6.54-4.37,12.98-6.95,19.25c-2.61,6.28-5.56,12.39-8.77,18.27c-3.25,5.88-6.88,11.49-10.75,16.79
			c-3.94,5.28-8.24,10.17-12.75,14.66c2.05-6.06,3.63-12.11,4.74-18.19c1.04-6.1,1.71-12.16,1.96-18.19
			c0.21-6.05,0.13-12.03-0.28-17.97c-0.44-5.95-1.15-11.83-2.08-17.66c-1.95-11.66-4.78-23.06-8.35-34.17
			c-1.78-5.55-3.74-11.02-5.86-16.4c-1.05-2.69-2.16-5.35-3.29-7.99l-1.74-4l-0.45-1.05l-0.23-0.53l-0.24-0.61l-0.24-0.61
			c-0.04-0.12-0.08-0.17-0.12-0.34l-0.15-0.51l-0.29-1.02c-0.02-0.07-0.02-0.03-0.04-0.19l-0.11-0.74c-0.07-0.5-0.13-0.99-0.18-1.49
			c-0.1-1-0.17-2-0.2-3.01c0-19.33,15.67-35,35-35C1018.04,343.84,1033.71,359.51,1033.71,378.84z"/>
		<path class="st8" d="M1152.61,414.51c-0.04-0.32-0.09-0.64-0.15-0.95l-0.05-0.24c-0.02-0.07-0.02,0.02-0.03,0.02l-0.06,0.12
			l-0.12,0.25c-0.04,0.06-0.07,0.3-0.11,0.44l-0.21,1l-0.2,1.12l-0.86,4.63c-0.61,3.12-1.3,6.22-2.05,9.27
			c-1.53,6.11-3.34,12.06-5.43,17.84c-4.18,11.56-9.44,22.49-15.66,32.53c-3.13,5.02-6.47,9.82-10.02,14.37
			c-3.6,4.53-7.32,8.84-11.28,12.84c-7.88,8.04-16.51,14.91-25.44,20.7c4.56-9.65,8.01-19.48,10.2-29.31
			c1.12-4.9,1.87-9.83,2.43-14.67c0.51-4.87,0.73-9.69,0.72-14.44c-0.06-9.52-1.18-18.78-3.16-27.6c-0.99-4.41-2.21-8.71-3.62-12.85
			c-0.72-2.07-1.47-4.1-2.28-6.1l-1.25-3.05l-0.32-0.8l-0.34-0.92c-0.06-0.18-0.11-0.26-0.17-0.52l-0.18-0.71l-0.09-0.35
			c-0.02-0.08-0.03-0.07-0.05-0.22l-0.05-0.48c-0.07-0.63-0.13-1.27-0.18-1.91c0-19.33,15.67-35,35-35
			S1152.61,395.18,1152.61,414.51z"/>
		<path class="st9" d="M585.54,367.62c0,0,9.91,263.56-225.91,308.15c3.96,0.99,34.68,101.06,173.39,124.84
			s-184.14,34.68-237.72-16.84s-69.43-174.38-69.43-174.38S390.35,318.08,585.54,367.62z"/>
		<path class="st9" d="M977.94,601.77c0,0-82.27,34.68-53.54,147.63S1007.7,648.34,977.94,601.77z"/>
		<path class="st9" d="M935.3,368.93c-3.13-0.1,220.95,82.24,241.76,197.17s-28.73,202.13-28.73,202.13s11.89,83.23,20.81,83.23
			c8.92,0,13.87,21.8-4.95,29.72c-18.83,7.93,60.44,35.67,77.28-28.73s27.74-384.44,27.74-384.44S1087.89,373.88,935.3,368.93z"/>
		
			<use xlink:href="#XMLID_7_"  style="overflow:visible;fill:none;stroke:#B66E00;stroke-width:4;stroke-linecap:round;stroke-linejoin:round;stroke-miterlimit:10;"/>
	</g>
	<g>
		<defs>
			<path id="XMLID_2_" d="M565.17,721.91c5.17,19.5,9.34,44.24,12.54,75.41c0,0,10.07,92.24,16.73,101.02
				c18.74,24.72,17.86,50.27-4.51,55.42c-22.37,5.15-30.08,3.12-54.6-29.24c-24.61-32.47-68.45-187.72-68.45-187.72"/>
		</defs>
		<use xlink:href="#XMLID_2_"  style="overflow:visible;fill:#F39200;"/>
		<clipPath id="XMLID_17_">
			<use xlink:href="#XMLID_2_"  style="overflow:visible;"/>
		</clipPath>
		<path class="st10" d="M586.53,752.38l-19.97-24.98c0,0-9.76,46.45,2.13,111.51s35.6,122.53-11.92,119.56s52.55,91,84.25-2.56
			S586.53,752.38,586.53,752.38z"/>
		
			<use xlink:href="#XMLID_2_"  style="overflow:visible;fill:none;stroke:#B66E00;stroke-width:4;stroke-linecap:round;stroke-linejoin:round;stroke-miterlimit:10;"/>
	</g>
	<g>
		<defs>
			<path id="SVGID_1_" d="M1209.72,677.61c-0.67,26.47-9.75,77.15-33.75,93.65c0,0,8.67,58.67,7.67,70.67
				c0,0,16.33,3.33,13.33,17.33s-33,37-61,0s-50-72-50-72s-49.84-13.82-88.16-37.64c-23.83-14.81-41.43-38.06-48.24-65.28
				c-6.82-27.25-4-61.91,38.58-86.54"/>
		</defs>
		<use xlink:href="#SVGID_1_"  style="overflow:visible;fill:#F39200;"/>
		<clipPath id="SVGID_2_">
			<use xlink:href="#SVGID_1_"  style="overflow:visible;"/>
		</clipPath>
		<path class="st11" d="M1181.27,647.29c0,0-4.21,86.26-35.91,115.98c-3.96,4.95,15.85,90.1,22.79,91.16
			c6.94,1.06,7.93,27.74-9.91,32.7s88.18,46.57,99.08-56.48S1226.1,638.32,1181.27,647.29z"/>
		
			<use xlink:href="#SVGID_1_"  style="overflow:visible;fill:none;stroke:#B66E00;stroke-width:4;stroke-linecap:round;stroke-linejoin:round;stroke-miterlimit:10;"/>
	</g>
	<g>
		<line class="st12" x1="325.48" y1="681.08" x2="326.98" y2="667.29"/>
		<path class="st13" d="M314.79,733.67c0,0,28.34,12.7,31.43-27.27c2.3-29.69-15.52-29.33-21.67-29.07
			c-6.16,0.26-2.32,58.08-2.32,58.08"/>
		<g>
			<defs>
				
					<ellipse id="XMLID_5_" transform="matrix(0.1192 -0.9929 0.9929 0.1192 -418.6518 940.4528)" cx="320.73" cy="706.18" rx="28.25" ry="15.25"/>
			</defs>
			<use xlink:href="#XMLID_5_"  style="overflow:visible;fill:#DADADA;"/>
			<clipPath id="XMLID_18_">
				<use xlink:href="#XMLID_5_"  style="overflow:visible;"/>
			</clipPath>
			<line class="st14" x1="337.92" y1="664.61" x2="290.84" y2="738.64"/>
			<line class="st15" x1="346.24" y1="677.57" x2="299.16" y2="751.61"/>
			<use xlink:href="#XMLID_5_"  style="overflow:visible;fill:none;stroke:#706F6F;stroke-width:4;stroke-miterlimit:10;"/>
		</g>
	</g>
	<path class="st16" d="M544.25,361.99c46.24-1.98,44.92,64.07-4.62,153.91c-49.54,89.83-136.73,145.98-200.81,148.62
		c-64.07,2.64-38.06-29.06-38.06-29.06C180.29,652.63,474.9,669.15,544.25,361.99z"/>
	<g>
		<defs>
			<path id="XMLID_3_" d="M556.77,372.59c0,153.2-124.19,277.38-277.38,277.38S2,525.79,2,372.59S126.19,95.21,279.38,95.21
				S556.77,219.4,556.77,372.59z"/>
		</defs>
		<use xlink:href="#XMLID_3_"  style="overflow:visible;fill:#EDEDED;"/>
		<clipPath id="XMLID_19_">
			<use xlink:href="#XMLID_3_"  style="overflow:visible;"/>
		</clipPath>
		<ellipse class="st17" cx="492.31" cy="363.31" rx="46.24" ry="64.07"/>
		<g class="st18">
			<defs>
				<path id="XMLID_1_" d="M-13.6,266.41c0,0,254.36-33.49,365.55-11.8s86.45,283.67-23.03,289S4.68,577.15-22.73,465.57
					S-13.6,266.41-13.6,266.41z"/>
			</defs>
			<use xlink:href="#XMLID_1_"  style="overflow:visible;fill:#706F6F;"/>
			<clipPath id="XMLID_20_">
				<use xlink:href="#XMLID_1_"  style="overflow:visible;"/>
			</clipPath>
			<g class="st19">
				<path class="st20" d="M269.06,269.59c0,0-37.17-60.78-77.4-68.36c0,0,31.32,55.34,23.32,82.08
					C206.98,310.04,269.06,269.59,269.06,269.59z"/>
				<path class="st21" d="M191.66,201.23c-2.07-0.88-9.48,2.22-1.28,34.93s6.13,48.03,1.3,57.72c-4.83,9.7,40.78-17.69,40.78-17.69
					S211.72,209.74,191.66,201.23z"/>
				<g>
					<defs>
						<path id="XMLID_13_" d="M432.02,443.6c-9.97,93.21-91.91,160.87-183.03,151.12c-91.12-9.74-156.9-93.2-146.94-186.41
							s72.08-164.9,226.16-143.64C418.99,277.2,441.99,350.39,432.02,443.6z"/>
					</defs>
					<use xlink:href="#XMLID_13_"  style="overflow:visible;fill:#F39200;"/>
					<clipPath id="XMLID_21_">
						<use xlink:href="#XMLID_13_"  style="overflow:visible;"/>
					</clipPath>
					<path class="st22" d="M334.79,370.57c0,0,56.92,4.63,76.56,38.61c0,0-40.02-8.74-53.64-3.2c0,0,40.64,29.03,44.42,54.57
						c-5.42-1.51-42.64-27.74-68.66-19.4c0,0,46.45,35.64,46.59,69.16c0,0-35.29-30.23-56.56-34.17c0,0,21.59,30.43,18.11,54.26
						c0,0-22.67-24.63-38.91-32.95c0,0,9.17,32.56,7.7,46.36c0,0-17.62-35.39-27.55-38.31"/>
					<path class="st23" d="M317.69,252.34c1.98,2.64,93.14,22.52,88.51,120.25c-4.62,97.73-163.82,182.94-276.77,146.61
						s-65.39,106.35,120.22,88.51s202.13-71.34,215.34-124.18C478.2,430.69,515.85,229.22,317.69,252.34"/>
					
						<use xlink:href="#XMLID_13_"  style="overflow:visible;fill:none;stroke:#B66E00;stroke-width:4;stroke-linecap:round;stroke-linejoin:round;stroke-miterlimit:10;"/>
				</g>
				<path id="XMLID_10_" class="st20" d="M396.38,322.25c0,0-19.14-98.1-86.72-105.33c0,0,30.95,34.06,16.55,72.15"/>
				<path class="st21" d="M310.55,217.69c0,0-5.84-8.87-5.09,32.39s-6.36,42.36-7.36,43.97c-0.2,0.32,3.89-3.19,9.68-7.65
					c0,0-7.36,25.58,6.99,1.67c1.2-1.99-3.77,11.22,3.04,15.87c2.97,2.03,6.59-12.99,6.59-12.99s7.16,19.2,9.45,10.23
					C336.95,288.98,336.64,231.13,310.55,217.69z"/>
				<circle class="st24" cx="235.28" cy="375.63" r="45.34"/>
				<g>
					<path class="st24" d="M79.91,488.84c-4.83-0.02-9.9,0.49-14.79,1.33c-4.92,0.84-9.77,2.13-14.45,3.87
						c-4.67,1.78-9.17,4.06-13.22,7.03c-2.04,1.47-3.92,3.15-5.69,4.94c-1.75,1.81-3.3,3.82-4.71,5.93
						c1.27-2.19,2.69-4.31,4.34-6.26c1.67-1.93,3.46-3.76,5.44-5.4c3.94-3.29,8.4-5.94,13.07-8.08c4.69-2.11,9.6-3.76,14.61-4.97
						c5.04-1.2,10.06-2.06,15.37-2.39c1.1-0.07,2.05,0.77,2.12,1.87s-0.77,2.05-1.87,2.12c-0.04,0-0.08,0-0.13,0L79.91,488.84z"/>
				</g>
				<g>
					<path class="st24" d="M68.77,465.71c-4.92-0.61-10.09-0.79-15.17-0.69c-5.1,0.11-10.19,0.55-15.24,1.34
						c-5.05,0.82-10.01,2.11-14.84,3.82c-4.82,1.77-9.38,4.18-13.65,7.09c4.07-3.17,8.52-5.91,13.28-8.01
						c4.78-2.04,9.74-3.69,14.83-4.85c5.09-1.14,10.26-1.93,15.47-2.38c2.6-0.22,5.22-0.37,7.84-0.42c2.63-0.06,5.21-0.04,7.93,0.13
						c1.1,0.07,1.94,1.02,1.88,2.12c-0.07,1.1-1.02,1.94-2.12,1.88c-0.04,0-0.08-0.01-0.12-0.01L68.77,465.71z"/>
				</g>
				<g>
					<path class="st24" d="M73.2,448.07c-1.88-0.79-4.03-1.48-6.11-2.09c-2.11-0.58-4.25-1.11-6.41-1.53
						c-4.32-0.85-8.72-1.41-13.14-1.57c-4.42-0.18-8.88-0.08-13.3,0.47c-4.44,0.43-8.8,1.42-13.15,2.53c4.24-1.43,8.55-2.75,13-3.52
						c4.42-0.89,8.94-1.32,13.46-1.48c4.53-0.17,9.08,0.06,13.61,0.61c4.55,0.57,8.97,1.39,13.52,2.86
						c1.05,0.34,1.63,1.47,1.29,2.52s-1.47,1.63-2.52,1.29c-0.05-0.02-0.1-0.04-0.15-0.06L73.2,448.07z"/>
				</g>
				<circle class="st25" cx="222.31" cy="371.77" r="17.31"/>
				<circle class="st24" cx="235.92" cy="359.65" r="12.24"/>
				<g>
					
						<ellipse transform="matrix(0.3057 -0.9521 0.9521 0.3057 -266.9828 359.6224)" class="st24" cx="113.1" cy="362.88" rx="38.96" ry="34.2"/>
					<circle class="st25" cx="100.26" cy="360.69" r="15.87"/>
					<circle class="st24" cx="112.73" cy="349.59" r="11.22"/>
				</g>
				<path class="st21" d="M91.76,403.08c0,0-38.48,29.34-25.2,81.77C80.01,537.92,232.6,549,228.32,473.94
					C224.05,399.24,163.56,396.72,91.76,403.08z"/>
				<path class="st26" d="M143.24,397.06c0,0-35.12-17.02-56.89-7.88c-21.78,9.15,5.66,35.39,26.33,34.37
					C133.35,422.54,174.32,408.27,143.24,397.06z"/>
				<g>
					<defs>
						<path id="XMLID_9_" d="M87.27,443.76c6.68-5.6,16.02-6.56,23.83-2.68c7.96,3.95,19.78,7,34.23,2.35
							c11.35-3.65,23.52,2.6,27.16,13.95c3.65,11.35-2.6,23.51-13.95,27.16c-20.5,6.59-38.08,5.44-52.21,1.24
							c-5.64-1.67-10.73-3.83-15.24-6.18C77.41,472.48,75.44,453.67,87.27,443.76L87.27,443.76z"/>
					</defs>
					<use xlink:href="#XMLID_9_"  style="overflow:visible;fill:#881222;"/>
					<clipPath id="XMLID_22_">
						<use xlink:href="#XMLID_9_"  style="overflow:visible;"/>
					</clipPath>
					<path class="st27" d="M90.82,436.76c0,0,3.65,21.76,13.32,20.72s16.84-21.08,16.84-21.08S96.5,430.67,90.82,436.76z"/>
					<path class="st27" d="M133.83,439.21c0,0,2.76,21.09,12.58,20.95c9.82-0.15,18.81-21.66,18.81-21.66
						S141.36,431.4,133.83,439.21z"/>
					
						<use xlink:href="#XMLID_9_"  style="overflow:visible;fill:none;stroke:#B66E00;stroke-width:4;stroke-linecap:round;stroke-linejoin:round;stroke-miterlimit:10;"/>
				</g>
				<g>
					<path class="st28" d="M86.9,404.1c-0.68-1.27-0.75-2.72-0.48-4.12c0.11-0.72,0.4-1.36,0.69-2.04c0.34-0.62,0.73-1.25,1.19-1.8
						c0.94-1.1,2.15-1.91,3.43-2.4c0.65-0.21,1.3-0.42,1.94-0.6c0.65-0.12,1.28-0.25,1.91-0.38c0.63-0.17,1.26-0.18,1.88-0.26
						c0.62-0.05,1.25-0.15,1.86-0.15c1.23,0.06,2.46,0,3.66,0.16c1.2,0.18,2.39,0.26,3.56,0.53c1.17,0.26,2.32,0.53,3.46,0.82
						l-0.06,0.5c-1.18,0.1-2.34,0.18-3.49,0.25c-1.15,0.07-2.29,0.28-3.41,0.41c-1.13,0.12-2.21,0.44-3.29,0.64
						c-0.54,0.11-1.05,0.3-1.57,0.45c-0.51,0.17-1.05,0.28-1.51,0.52c-0.48,0.22-0.95,0.43-1.41,0.67l-1.23,0.85
						c-0.77,0.59-1.49,1.11-2.24,1.61c-1.49,1.02-2.87,2.25-4.39,4.35L86.9,404.1z"/>
				</g>
				<path class="st29" d="M434.49,416.29c0,0-39.69,90.1-173.55,54.49"/>
				<g>
					<defs>
						<path id="XMLID_8_" d="M193.25,447.56c0,0-2.37-12.34,32.08-3.48c34.45,8.86,47.04,20.36,36.45,30.55
							c-10.59,10.2-32.94-6.87-42.14-9.58C210.43,462.35,188.18,460.83,193.25,447.56z"/>
					</defs>
					<use xlink:href="#XMLID_8_"  style="overflow:visible;fill:#575756;"/>
					<clipPath id="XMLID_23_">
						<use xlink:href="#XMLID_8_"  style="overflow:visible;"/>
					</clipPath>
					<path class="st30" d="M189.54,447.86c0,0,18.5,6.61,32.37,9.91c13.87,3.3,33.69,17.83,46.9,5.28
						c13.21-12.55,0.66,29.06-22.46,24.44s-58.79-17.83-62.75-26.42C179.63,452.49,189.54,447.86,189.54,447.86z"/>
					<use xlink:href="#XMLID_8_"  style="overflow:visible;fill:none;stroke:#1D1D1B;stroke-width:4;stroke-miterlimit:10;"/>
				</g>
				<g>
					<path class="st24" d="M192.23,474.3c3.92,0.91,7.59,2.08,11.28,3.39c3.67,1.31,7.28,2.81,10.8,4.47
						c7.05,3.31,13.75,7.38,19.84,12.23c6.03,4.91,11.43,10.66,15.45,17.32c2.07,3.28,3.65,6.85,4.96,10.47l0.9,2.75
						c0.26,0.93,0.47,1.87,0.71,2.8l0.35,1.4l0.24,1.42l0.48,2.85l-0.6-2.82l-0.3-1.41l-0.4-1.38c-0.28-0.92-0.52-1.85-0.82-2.75
						l-1.01-2.69c-1.46-3.53-3.16-6.97-5.34-10.11c-4.23-6.36-9.74-11.74-15.83-16.27c-6.14-4.47-12.84-8.15-19.84-11.08
						c-3.5-1.47-7.07-2.77-10.69-3.89c-3.6-1.11-7.33-2.11-10.93-2.78l-0.06-0.01c-1.09-0.2-1.8-1.25-1.6-2.33s1.25-1.8,2.33-1.6
						C192.17,474.29,192.2,474.3,192.23,474.3z"/>
				</g>
				<g>
					<path class="st24" d="M178.61,490.88l0.32,0.14l0.15,0.07l0.08,0.04l0.3,0.17l0.57,0.33l1.09,0.66
						c0.71,0.45,1.42,0.9,2.11,1.36c1.39,0.93,2.75,1.89,4.09,2.87c2.68,1.97,5.26,4.06,7.76,6.25c5,4.37,9.61,9.16,13.71,14.37
						c4.08,5.21,7.64,10.84,10.36,16.86c2.75,6,4.56,12.4,5.4,18.9c-1.17-6.45-3.3-12.69-6.3-18.46c-2.97-5.79-6.75-11.13-11-16.02
						c-4.27-4.88-9.01-9.33-14.09-13.34c-2.54-2-5.16-3.9-7.84-5.68c-1.35-0.88-2.71-1.75-4.09-2.57c-0.69-0.41-1.38-0.81-2.08-1.19
						l-1.04-0.56l-0.51-0.26l-0.24-0.12l-0.06-0.03c-0.01,0,0.01,0.01,0.01,0.01c0.01,0.01,0.02,0.01,0.04,0.01
						c-1.05-0.35-1.61-1.48-1.26-2.53C176.43,491.1,177.56,490.54,178.61,490.88z"/>
				</g>
				<g>
					<path class="st24" d="M171.86,501.34c3.44,4.1,6.56,8.31,9.54,12.67c2.97,4.35,5.73,8.84,8.2,13.49
						c2.45,4.66,4.63,9.48,6.19,14.51c1.56,5.01,2.5,10.3,2.01,15.51c0.15-5.23-1.12-10.36-2.96-15.18
						c-1.85-4.84-4.29-9.43-6.98-13.84c-2.71-4.41-5.7-8.64-8.88-12.72c-3.18-4.06-6.55-8.05-10.06-11.73l-0.03-0.03
						c-0.76-0.8-0.73-2.07,0.07-2.83c0.8-0.76,2.07-0.73,2.83,0.07C171.8,501.27,171.83,501.31,171.86,501.34z"/>
				</g>
			</g>
			<g class="st19">
				<defs>
					<rect id="XMLID_11_" x="-63.01" y="225.28" width="525.47" height="346.51"/>
				</defs>
				<use xlink:href="#XMLID_11_"  style="overflow:visible;opacity:0.3;fill:#D0EBFC;"/>
				<clipPath id="XMLID_24_">
					<use xlink:href="#XMLID_11_"  style="overflow:visible;opacity:0.3;"/>
				</clipPath>
				<line class="st31" x1="214.96" y1="148.37" x2="-117.08" y2="718.01"/>
				<line class="st32" x1="407.57" y1="153.66" x2="75.53" y2="723.3"/>
				
					<use xlink:href="#XMLID_11_"  style="overflow:visible;opacity:0.3;fill:none;stroke:#878787;stroke-width:9;stroke-linecap:round;stroke-linejoin:round;stroke-miterlimit:10;"/>
			</g>
			
				<use xlink:href="#XMLID_1_"  style="overflow:visible;fill:none;stroke:#525353;stroke-width:9;stroke-linecap:round;stroke-linejoin:round;stroke-miterlimit:10;"/>
		</g>
		<path class="st33" d="M325.48,75.98c0,0,243.88,122.2,195,317.06S299.85,655.28,97.72,605.08
			c-202.13-50.2-23.78,162.5,166.46,118.9s375.11-105.4,337.5-345.32S325.48,75.98,325.48,75.98z"/>
		<g class="st18">
			<path class="st24" d="M71.72,232.09c2.29-5.23,4.98-10.18,7.87-15.05c2.93-4.84,6.11-9.53,9.42-14.14
				c6.71-9.15,14.18-17.78,22.24-25.87c8.11-8.04,16.83-15.5,26.06-22.33l3.48-2.54l3.57-2.41c2.4-1.58,4.74-3.26,7.22-4.72
				c2.46-1.49,4.9-3.03,7.38-4.49l7.55-4.2c1.25-0.73,2.53-1.38,3.82-2.02l3.86-1.95c1.29-0.64,2.57-1.33,3.85-1.99
				c1.29-0.64,2.61-1.23,3.92-1.85c2.62-1.21,5.22-2.49,7.87-3.67l8.02-3.35c2.68-1.12,5.42-2.03,8.17-2.97
				c1.38-0.45,2.75-0.92,4.13-1.34c1.38-0.43,2.76-0.9,4.17-1.22c5.62-1.39,11.24-2.8,16.97-3.55c2.86-0.4,5.72-0.84,8.58-1.2
				c2.88-0.23,5.75-0.49,8.62-0.68c2.87-0.19,5.74-0.43,8.62-0.38c2.88-0.03,5.75-0.01,8.62,0.02c2.86-0.02,5.74,0.24,8.6,0.46
				c2.86,0.22,5.72,0.5,8.56,0.79c2.85,0.34,5.69,0.87,8.51,1.37c2.83,0.51,5.64,1.11,8.44,1.79v2c-5.56,1.63-11.07,2.76-16.53,3.97
				c-2.73,0.66-5.44,1.3-8.15,1.88c-2.71,0.61-5.41,1.1-8.09,1.8c-5.35,1.35-10.72,2.32-15.98,3.76c-2.64,0.67-5.29,1.26-7.92,1.89
				l-7.84,2.09c-5.26,1.24-10.39,2.85-15.62,4.09c-1.31,0.31-2.6,0.68-3.89,1.05c-1.29,0.37-2.59,0.7-3.89,1.05
				c-2.6,0.68-5.24,1.25-7.8,2.07l-7.79,2.16c-2.58,0.78-5.13,1.65-7.7,2.49c-1.28,0.43-2.57,0.83-3.85,1.29
				c-1.26,0.49-2.53,0.95-3.78,1.46l-3.77,1.49c-1.26,0.49-2.52,0.99-3.74,1.56l-7.39,3.36c-2.43,1.18-4.83,2.44-7.25,3.65
				c-2.45,1.18-4.76,2.58-7.14,3.89l-3.55,1.99l-3.47,2.13c-9.32,5.58-18.29,11.82-26.78,18.72c-8.54,6.84-16.56,14.37-24.09,22.41
				c-3.73,4.05-7.36,8.22-10.77,12.56c-3.42,4.32-6.72,8.84-9.56,13.52L71.72,232.09z"/>
		</g>
		
			<use xlink:href="#XMLID_3_"  style="overflow:visible;fill:none;stroke:#706F6F;stroke-width:4;stroke-linecap:round;stroke-linejoin:round;stroke-miterlimit:10;"/>
	</g>
	<path class="st34" d="M73.94,446.21"/>
</g>
</svg>
